<svg width="24" height="24" viewBox="0 0 24 24" fill="none" xmlns="http://www.w3.org/2000/svg">
  <rect width="24" height="24" rx="12" fill="#000000"/>
  <path d="M12.53 9.02c1.04.36 2.18.36 3.22 0v-1.8c-.61 0-1.19-.13-1.72-.37-.53-.24-.99-.59-1.34-1.02-.35-.43-.6-.93-.73-1.46H10.4v9.12c-.03.93-.43 1.8-1.12 2.42s-1.62.93-2.55.87c-.93-.06-1.8-.48-2.42-1.17-.62-.69-.96-1.58-.95-2.51.01-.93.37-1.81 1.01-2.48.64-.67 1.53-1.06 2.46-1.08.19 0 .38.01.56.04v-1.83c-.19-.02-.37-.03-.56-.03-1.45.02-2.83.58-3.84 1.57S2 11.67 2 13.12s.4 2.8 1.12 3.89 1.72 1.9 2.9 2.35c1.18.45 2.46.52 3.68.21 1.22-.31 2.31-.98 3.13-1.93.82-.95 1.32-2.14 1.44-3.4V10.8c.76.53 1.64.84 2.56.9v-1.83c-1.24-.06-2.39-.66-3.3-1.85z" fill="#FF004F"/>
</svg>