<svg width="24" height="24" viewBox="0 0 24 24" fill="none" xmlns="http://www.w3.org/2000/svg">
  <path d="M23.498 6.186a2.988 2.988 0 0 0-2.103-2.113C19.503 3.538 12 3.538 12 3.538s-7.503 0-9.395.535A2.988 2.988 0 0 0 .502 6.186C0 8.07 0 12 0 12s0 3.93.502 5.814a2.988 2.988 0 0 0 2.103 2.113C4.497 20.462 12 20.462 12 20.462s7.503 0 9.395-.535a2.988 2.988 0 0 0 2.103-2.113C24 15.93 24 12 24 12s0-3.93-.502-5.814z" fill="#FF0000"/>
  <path d="M9.546 15.568L15.818 12L9.546 8.432v7.136z" fill="white"/>
</svg>